<?xml version="1.0" encoding="UTF-8"?>
<!DOCTYPE svg PUBLIC "-//W3C//DTD SVG 1.1//EN" "http://www.w3.org/Graphics/SVG/1.1/DTD/svg11.dtd">
<svg xmlns="http://www.w3.org/2000/svg" version="1.1" width="2084px" height="2084px" style="shape-rendering:geometricPrecision; text-rendering:geometricPrecision; image-rendering:optimizeQuality; fill-rule:evenodd; clip-rule:evenodd" xmlns:xlink="http://www.w3.org/1999/xlink">
<g><path style="opacity:0.999" fill="#f9e000" d="M -0.5,-0.5 C 694.167,-0.5 1388.83,-0.5 2083.5,-0.5C 2083.5,694.167 2083.5,1388.83 2083.5,2083.5C 1388.83,2083.5 694.167,2083.5 -0.5,2083.5C -0.5,1388.83 -0.5,694.167 -0.5,-0.5 Z"/></g>
<g><path style="opacity:1" fill="#371d1d" d="M 987.5,382.5 C 1133.41,375.428 1273.41,400.595 1407.5,458C 1506.11,501.537 1590.95,563.704 1662,644.5C 1710.25,700.978 1745.59,764.978 1768,836.5C 1808.29,987.435 1784.62,1127.43 1697,1256.5C 1635.71,1341.47 1559.21,1408.97 1467.5,1459C 1348.45,1522.46 1221.45,1557.46 1086.5,1564C 1056.83,1564.67 1027.17,1564.67 997.5,1564C 964.38,1562.32 931.38,1559.65 898.5,1556C 803.673,1620.91 708.673,1685.58 613.5,1750C 606.014,1755.49 597.681,1757.49 588.5,1756C 583.664,1754.18 580.831,1750.68 580,1745.5C 578,1738.83 578,1732.17 580,1725.5C 601.438,1642.92 623.271,1560.42 645.5,1478C 645.355,1477.23 645.022,1476.56 644.5,1476C 550.541,1430.38 470.374,1367.21 404,1286.5C 338.706,1204.34 301.372,1110.68 292,1005.5C 286.498,895.966 313.498,795.299 373,703.5C 430.805,618.024 504.305,549.524 593.5,498C 692.358,441.269 798.358,405.269 911.5,390C 936.922,386.917 962.256,384.417 987.5,382.5 Z"/></g>
<g><path style="opacity:1" fill="#f9e000" d="M 508.5,790.5 C 591.502,790.661 674.502,791.161 757.5,792C 773.552,795.052 783.385,804.552 787,820.5C 790.105,837.188 785.272,851.021 772.5,862C 768.729,864.219 764.729,865.885 760.5,867C 732.169,867.5 703.835,867.667 675.5,867.5C 675.667,954.167 675.5,1040.83 675,1127.5C 673.699,1136.15 669.199,1142.65 661.5,1147C 643.016,1155.71 624.683,1155.37 606.5,1146C 600.797,1142.63 596.963,1137.8 595,1131.5C 594.755,1042.5 594.255,953.496 593.5,864.5C 565.165,864.667 536.831,864.5 508.5,864C 491.953,857.596 483.286,845.429 482.5,827.5C 483.477,809.557 492.143,797.224 508.5,790.5 Z"/></g>
<g><path style="opacity:1" fill="#f9e000" d="M 873.5,791.5 C 892.646,790.164 909.979,794.997 925.5,806C 927.709,807.873 929.542,810.04 931,812.5C 939.587,831.926 947.587,851.593 955,871.5C 984.863,951.423 1014.53,1031.42 1044,1111.5C 1045.64,1125.4 1040.8,1136.57 1029.5,1145C 1012.65,1156.34 995.317,1157.34 977.5,1148C 974.96,1145.8 972.793,1143.3 971,1140.5C 962.744,1122.24 957.244,1103.24 954.5,1083.5C 907.829,1083.17 861.162,1083.5 814.5,1084.5C 809.128,1103.66 803.295,1122.66 797,1141.5C 787.971,1153.18 776.138,1157.35 761.5,1154C 741.302,1149.63 728.968,1137.47 724.5,1117.5C 725.143,1114.12 725.977,1110.78 727,1107.5C 763.333,1011.17 799.667,914.833 836,818.5C 843.492,802.507 855.992,793.507 873.5,791.5 Z"/></g>
<g><path style="opacity:1" fill="#f9df00" d="M 1104.5,791.5 C 1120.75,790.082 1134.59,795.082 1146,806.5C 1148.81,810.453 1150.81,814.787 1152,819.5C 1152.5,904.833 1152.67,990.166 1152.5,1075.5C 1188.17,1075.33 1223.83,1075.5 1259.5,1076C 1271.97,1080.39 1279.13,1089.23 1281,1102.5C 1283.96,1117.1 1281.62,1130.77 1274,1143.5C 1270.21,1148.31 1265.38,1151.47 1259.5,1153C 1203.5,1153.67 1147.5,1153.67 1091.5,1153C 1077.7,1148.6 1070.2,1139.1 1069,1124.5C 1068.33,1023.5 1068.33,922.5 1069,821.5C 1071.75,809.749 1078.58,801.249 1089.5,796C 1094.58,794.32 1099.58,792.82 1104.5,791.5 Z"/></g>
<g><path style="opacity:1" fill="#f9e000" d="M 1336.5,791.5 C 1349.02,791.136 1360.68,793.97 1371.5,800C 1375.12,802.742 1377.62,806.242 1379,810.5C 1379.96,828.987 1380.46,847.487 1380.5,866C 1380.09,885.838 1379.93,905.671 1380,925.5C 1423.83,881.667 1467.67,837.833 1511.5,794C 1520.11,791.272 1528.11,792.605 1535.5,798C 1545,804.833 1553.17,813 1560,822.5C 1563.25,827.753 1565.42,833.42 1566.5,839.5C 1565.83,842.691 1564.66,845.691 1563,848.5C 1528.42,883.741 1494.59,919.574 1461.5,956C 1496.05,1002.93 1531.22,1049.43 1567,1095.5C 1574.33,1106.61 1574,1117.61 1566,1128.5C 1553.63,1145.94 1536.79,1154.77 1515.5,1155C 1512.22,1154.24 1509.22,1152.91 1506.5,1151C 1471.37,1103.88 1436.37,1056.72 1401.5,1009.5C 1394.19,1014.98 1387.02,1020.64 1380,1026.5C 1379.67,1062.5 1379.33,1098.5 1379,1134.5C 1374.57,1146.15 1366.07,1152.65 1353.5,1154C 1337.23,1157.34 1321.9,1155.01 1307.5,1147C 1303.81,1144.31 1301.31,1140.81 1300,1136.5C 1299.52,1027.83 1299.85,919.165 1301,810.5C 1305.84,801.486 1313.34,795.986 1323.5,794C 1327.99,793.24 1332.32,792.406 1336.5,791.5 Z"/></g>
<g><path style="opacity:1" fill="#371d1d" d="M 927.5,1010.5 C 898.671,1011.5 869.671,1011.83 840.5,1011.5C 855.374,967.415 870.54,923.415 886,879.5C 899.941,923.154 913.774,966.821 927.5,1010.5 Z"/></g>
<g><path style="opacity:1" fill="#8c7210" d="M 927.5,1010.5 C 928.043,1010.56 928.376,1010.89 928.5,1011.5C 899.003,1012.83 869.669,1012.83 840.5,1011.5C 869.671,1011.83 898.671,1011.5 927.5,1010.5 Z"/></g>
</svg>
