<?xml version="1.0" encoding="UTF-8"?>
<!DOCTYPE svg PUBLIC "-//W3C//DTD SVG 1.1//EN" "http://www.w3.org/Graphics/SVG/1.1/DTD/svg11.dtd">
<svg xmlns="http://www.w3.org/2000/svg" version="1.1" width="412px" height="162px" style="shape-rendering:geometricPrecision; text-rendering:geometricPrecision; image-rendering:optimizeQuality; fill-rule:evenodd; clip-rule:evenodd" xmlns:xlink="http://www.w3.org/1999/xlink">
<g><path style="opacity:0.957" fill="#f9004f" d="M 66.5,17.5 C 92.4426,16.9502 108.276,29.2835 114,54.5C 115.31,79.1824 104.144,95.0157 80.5,102C 54.1989,104.942 37.3656,93.7753 30,68.5C 27.7508,40.9479 39.9175,23.9479 66.5,17.5 Z M 68.5,39.5 C 84.3195,39.8184 92.1528,47.8184 92,63.5C 86.7799,78.6931 76.6132,83.5264 61.5,78C 50.8877,70.1322 48.721,60.2988 55,48.5C 58.5282,43.8341 63.0282,40.8341 68.5,39.5 Z"/></g>
<g><path style="opacity:0.957" fill="#f9004f" d="M 335.5,17.5 C 368.756,18.9237 384.256,36.2571 382,69.5C 374.17,94.0139 357.336,104.847 331.5,102C 306.135,94.1199 295.302,76.9532 299,50.5C 304.425,31.9027 316.592,20.9027 335.5,17.5 Z M 337.5,39.5 C 348.616,39.1377 356.116,44.1377 360,54.5C 361.678,72.4884 353.511,80.9884 335.5,80C 322.882,75.3909 318.049,66.5575 321,53.5C 324.283,46.1235 329.783,41.4568 337.5,39.5 Z"/></g>
<g><path style="opacity:0.945" fill="#f9004f" d="M 234.5,18.5 C 242.167,18.5 249.833,18.5 257.5,18.5C 257.5,59.5 257.5,100.5 257.5,141.5C 249.833,141.5 242.167,141.5 234.5,141.5C 234.5,100.5 234.5,59.5 234.5,18.5 Z"/></g>
<g><path style="opacity:0.95" fill="#f9004f" d="M 151.5,25.5 C 172.833,25.5 194.167,25.5 215.5,25.5C 215.902,40.9119 215.069,56.2452 213,71.5C 210.311,81.5189 205.144,90.0189 197.5,97C 185.695,106.739 173.029,115.239 159.5,122.5C 155.54,116.751 152.206,110.585 149.5,104C 163.33,95.9841 175.83,86.1508 187,74.5C 191.085,65.9932 192.585,56.9932 191.5,47.5C 178.167,47.5 164.833,47.5 151.5,47.5C 151.5,40.1667 151.5,32.8333 151.5,25.5 Z"/></g>
<g><path style="opacity:0.951" fill="#f9004f" d="M 39.5,104.5 C 46.8298,105.5 54.1631,106.5 61.5,107.5C 61.5,112.167 61.5,116.833 61.5,121.5C 68.1667,121.5 74.8333,121.5 81.5,121.5C 81.5,116.833 81.5,112.167 81.5,107.5C 89.1775,106.582 96.8442,105.582 104.5,104.5C 104.5,109.167 104.5,113.833 104.5,118.5C 111.835,116.833 119.168,115.166 126.5,113.5C 128.5,120.5 130.5,127.5 132.5,134.5C 92.1667,146.5 51.8333,146.5 11.5,134.5C 12.733,126.962 15.233,119.962 19,113.5C 25.7125,115.72 32.5458,117.387 39.5,118.5C 39.5,113.833 39.5,109.167 39.5,104.5 Z"/></g>
<g><path style="opacity:0.956" fill="#f9004f" d="M 308.5,104.5 C 315.808,105.663 323.141,106.663 330.5,107.5C 330.5,112.167 330.5,116.833 330.5,121.5C 337.167,121.5 343.833,121.5 350.5,121.5C 350.5,116.833 350.5,112.167 350.5,107.5C 357.837,106.5 365.17,105.5 372.5,104.5C 372.5,109.167 372.5,113.833 372.5,118.5C 379.898,116.981 387.231,115.481 394.5,114C 397.414,120.573 399.414,127.406 400.5,134.5C 360.04,146.829 319.707,146.496 279.5,133.5C 281.74,126.945 284.073,120.445 286.5,114C 293.769,115.481 301.102,116.981 308.5,118.5C 308.5,113.833 308.5,109.167 308.5,104.5 Z"/></g>
</svg>
