<?xml version="1.0" encoding="UTF-8"?>
<!DOCTYPE svg PUBLIC "-//W3C//DTD SVG 1.1//EN" "http://www.w3.org/Graphics/SVG/1.1/DTD/svg11.dtd">
<svg xmlns="http://www.w3.org/2000/svg" version="1.1" width="600px" height="600px" style="shape-rendering:geometricPrecision; text-rendering:geometricPrecision; image-rendering:optimizeQuality; fill-rule:evenodd; clip-rule:evenodd" xmlns:xlink="http://www.w3.org/1999/xlink">
<g><path style="opacity:0.957" fill="#f9004f" d="M 167.5,235.5 C 193.443,234.95 209.276,247.284 215,272.5C 216.31,297.182 205.144,313.016 181.5,320C 155.199,322.942 138.366,311.775 131,286.5C 128.751,258.948 140.918,241.948 167.5,235.5 Z M 169.5,257.5 C 185.32,257.818 193.153,265.818 193,281.5C 187.78,296.693 177.613,301.526 162.5,296C 151.888,288.132 149.721,278.299 156,266.5C 159.528,261.834 164.028,258.834 169.5,257.5 Z"/></g>
<g><path style="opacity:0.957" fill="#f9004f" d="M 436.5,235.5 C 469.756,236.924 485.256,254.257 483,287.5C 475.17,312.014 458.336,322.847 432.5,320C 407.135,312.12 396.302,294.953 400,268.5C 405.425,249.903 417.592,238.903 436.5,235.5 Z M 438.5,257.5 C 449.616,257.138 457.116,262.138 461,272.5C 462.678,290.488 454.511,298.988 436.5,298C 423.882,293.391 419.049,284.558 422,271.5C 425.283,264.124 430.783,259.457 438.5,257.5 Z"/></g>
<g><path style="opacity:0.945" fill="#f9004f" d="M 335.5,236.5 C 343.167,236.5 350.833,236.5 358.5,236.5C 358.5,277.5 358.5,318.5 358.5,359.5C 350.833,359.5 343.167,359.5 335.5,359.5C 335.5,318.5 335.5,277.5 335.5,236.5 Z"/></g>
<g><path style="opacity:0.95" fill="#f9004f" d="M 252.5,243.5 C 273.833,243.5 295.167,243.5 316.5,243.5C 316.902,258.912 316.069,274.245 314,289.5C 311.311,299.519 306.144,308.019 298.5,315C 286.695,324.739 274.029,333.239 260.5,340.5C 256.54,334.751 253.206,328.585 250.5,322C 264.33,313.984 276.83,304.151 288,292.5C 292.085,283.993 293.585,274.993 292.5,265.5C 279.167,265.5 265.833,265.5 252.5,265.5C 252.5,258.167 252.5,250.833 252.5,243.5 Z"/></g>
<g><path style="opacity:0.951" fill="#f9004f" d="M 140.5,322.5 C 147.83,323.5 155.163,324.5 162.5,325.5C 162.5,330.167 162.5,334.833 162.5,339.5C 169.167,339.5 175.833,339.5 182.5,339.5C 182.5,334.833 182.5,330.167 182.5,325.5C 190.178,324.582 197.844,323.582 205.5,322.5C 205.5,327.167 205.5,331.833 205.5,336.5C 212.835,334.833 220.168,333.166 227.5,331.5C 229.5,338.5 231.5,345.5 233.5,352.5C 193.167,364.5 152.833,364.5 112.5,352.5C 113.733,344.962 116.233,337.962 120,331.5C 126.712,333.72 133.546,335.387 140.5,336.5C 140.5,331.833 140.5,327.167 140.5,322.5 Z"/></g>
<g><path style="opacity:0.956" fill="#f9004f" d="M 409.5,322.5 C 416.808,323.663 424.141,324.663 431.5,325.5C 431.5,330.167 431.5,334.833 431.5,339.5C 438.167,339.5 444.833,339.5 451.5,339.5C 451.5,334.833 451.5,330.167 451.5,325.5C 458.837,324.5 466.17,323.5 473.5,322.5C 473.5,327.167 473.5,331.833 473.5,336.5C 480.898,334.981 488.231,333.481 495.5,332C 498.414,338.573 500.414,345.406 501.5,352.5C 461.04,364.829 420.707,364.496 380.5,351.5C 382.74,344.945 385.073,338.445 387.5,332C 394.769,333.481 402.102,334.981 409.5,336.5C 409.5,331.833 409.5,327.167 409.5,322.5 Z"/></g>
</svg>
